<svg xmlns="http://www.w3.org/2000/svg" viewBox="0 0 128 48"><path fill="#171923" d="M0 6h128v36H0z"/><path fill="#242537" d="M0 8h128v3H0zm0 29h128v3H0z"/><path fill="#0c0818" fill-opacity=".55" d="M0 21h128v6H0z"/><path fill="#9b6fcf" fill-opacity=".24" d="m-22 12 18 12-18 12h12L8 24l-18-12zm32 0 18 12-18 12h12l18-12-18-12zm32 0 18 12-18 12h12l18-12-18-12zm32 0 18 12-18 12h12l18-12-18-12zm32 0 18 12-18 12h12l18-12-18-12z"/><path fill="#d8fe56" fill-opacity=".16" d="M0 8h128v1H0zm0 31h128v1H0z"/></svg>