<svg xmlns="http://www.w3.org/2000/svg" viewBox="0 0 80 96"><g id="stage-1"><path fill="currentColor" d="M17 73h46v9H17z"/><path fill="#000" fill-opacity=".18" d="M17 79h46v3H17z"/></g><g id="stage-2"><path fill="currentColor" d="M21 52h18v21H21zm20 0h18v21H41z"/><path fill="#000" fill-opacity=".18" d="M21 68h38v5H21zm18-16h2v21h-2z"/></g><g id="stage-3"><path fill="currentColor" d="M21 31h38v21H21z"/><path fill="#000" fill-opacity=".18" d="M21 48h38v4H21z"/><path fill="#000" fill-opacity=".22" fill-rule="evenodd" d="M35 37h10v10H35zm2 2v6h6v-6z"/></g><g id="stage-4"><path fill="currentColor" d="m40 13 29 29a3 3 0 0 1-2 5H13a3 3 0 0 1-2-5Z"/><path fill="#000" fill-opacity=".18" d="M18 42h44l5 5H13z"/></g></svg>
