<svg xmlns="http://www.w3.org/2000/svg" viewBox="0 0 200 240"><path fill="#100c1e" d="M20 20h160v200H20z"/><path fill="#241a36" d="M20 20h160v16H20zm0 184h160v16H20zm0-168h16v168H20zm144 0h16v168h-16z"/><path fill="#5b2d8e" fill-opacity=".45" d="M36 36h128v8H36zm0 160h128v8H36z"/><path fill="#9b6fcf" fill-opacity=".22" d="M44 56h112v112H44z"/><path fill="#0c0818" d="M58 72h84v72H58zm92 10h12v28h-12z"/><path fill="#d8fe56" fill-opacity=".75" d="M154 86h4v4h-4z"/><path fill="#9b6fcf" fill-opacity=".55" d="M32 28h6v6h-6zm130 0h6v6h-6zM32 206h6v6h-6zm130 0h6v6h-6z"/></svg>