<svg xmlns="http://www.w3.org/2000/svg" viewBox="0 0 256 256"><path fill="#0c0818" d="M0 0h256v256H0z"/><path fill="#141020" d="M0 0h128v128H0zm128 128h128v128H128z"/><path fill="#191328" d="M128 0h128v128H128zM0 128h128v128H0z"/><path fill="#fff" fill-opacity=".035" d="M0 0h256v1H0zm0 64h256v1H0zm0 128h256v1H0zm0 192h256v1H0zM0 0h1v256H0zm64 0h1v256h-1zm128 0h1v256h-1zm192 0h1v256h-1z"/><path fill="#5b2d8e" fill-opacity=".16" d="M31 31h4v4h-4zm96 0h4v4h-4zm96 0h4v4h-4zM31 127h4v4h-4zm96 0h4v4h-4zm96 0h4v4h-4zM31 223h4v4h-4zm96 0h4v4h-4zm96 0h4v4h-4z"/><path fill="#fff" fill-opacity=".025" d="M16 80h36v1H16zm84 96h48v1h-48zm72-112h52v1h-52z"/></svg>